<?xml version="1.0" ?><!DOCTYPE svg  PUBLIC '-//W3C//DTD SVG 1.1//EN'  'http://www.w3.org/Graphics/SVG/1.1/DTD/svg11.dtd'><svg enable-background="new 0 0 64 64" height="64px" id="Layer_1" version="1.1" viewBox="0 0 64 64" width="64px" xml:space="preserve" xmlns="http://www.w3.org/2000/svg" xmlns:xlink="http://www.w3.org/1999/xlink"><g id="medal_3_"><polygon fill="#E53935" points="58,15 6,15 12,5 52,5  "/><polygon fill="#D32F2F" points="48.525,15 37.83,15 51.996,5 53.439,7.404  "/><polygon fill="#D32F2F" points="15.471,15 26.167,15 12,5 10.557,7.404  "/><polygon fill="#F44336" points="58,15 52,5 32,26.818 12,5 6,15 28,39 32,32.332 36,39  "/><polygon fill="#EF9A9A" points="8.242,11.262 30.303,35.162 31.758,32.736 9.697,8.838  "/><polygon fill="#EF9A9A" points="55.758,11.262 33.697,35.162 32.242,32.736 54.303,8.838  "/><linearGradient gradientUnits="userSpaceOnUse" id="SVGID_1_" x1="38.1504" x2="25.8506" y1="36.8496" y2="24.5498"><stop offset="0" style="stop-color:#0F272D;stop-opacity:0"/><stop offset="0.0934" style="stop-color:#0F272D;stop-opacity:0.0187"/><stop offset="1" style="stop-color:#0F272D;stop-opacity:0.2"/></linearGradient><path d="M33.592,25.08L32,26.818l-1.592-1.738c-4.1,0.406-7.732,2.369-10.331,5.277L28,39l4-6.668L36,39   l7.923-8.643C41.325,27.449,37.692,25.486,33.592,25.08z" fill="url(#SVGID_1_)"/><circle cx="32" cy="43" fill="#FFF59D" r="16"/><path d="M48,43c0,9-7.163,16-16,16s-16-7-16-16H48z" fill="#FDD835"/><circle cx="32" cy="43" fill="#FFEB3B" r="14"/><g><path d="M38.086,38.871c0.888,0.371,1.721-0.084,1.807-0.289c0.085-0.207-0.177-1.117-1.066-1.488    c-1.162-0.484-2.49,0.004-2.49,0.004S36.923,38.387,38.086,38.871z" fill="#FBC02D"/><path d="M40.777,45.873c0.186-0.123,0.48-1.025-0.048-1.83c-0.691-1.055-2.065-1.393-2.065-1.393    s-0.237,1.395,0.454,2.449C39.645,45.904,40.59,45.994,40.777,45.873z" fill="#FBC02D"/><path d="M40.752,48.66c-0.265,0.035-0.497,0.117-0.699,0.221c1.012-1.613,1.593-3.529,1.593-5.582    c0-0.232-0.015-0.463-0.03-0.691c0.03,0.23,0.096,0.404,0.163,0.461c0.196,0.172,1.302,0.215,2.039-0.635    c0.963-1.109,0.907-2.76,0.907-2.76s-1.642,0.178-2.605,1.287c-0.398,0.459-0.519,0.984-0.518,1.4    c-0.188-2.055-0.99-3.973-2.233-5.541c0.037,0.021,0.07,0.035,0.096,0.039c0.22,0.029,1.034-0.459,1.161-1.414    c0.168-1.248-0.648-2.404-0.648-2.404s-1.092,0.898-1.26,2.148c-0.06,0.445,0.053,0.828,0.211,1.117    c-0.533-0.59-1.134-1.119-1.79-1.576c0.2,0.064,0.369,0.072,0.435,0.037c0.165-0.086,0.483-0.809,0.112-1.521    c-0.486-0.93-1.598-1.324-1.598-1.324s-0.312,1.139,0.174,2.068c0.067,0.129,0.15,0.232,0.238,0.326    c-0.231-0.137-0.468-0.266-0.71-0.385c-0.079-0.285-0.396-0.781-1.012-0.955c-1.011-0.283-2.061,0.254-2.061,0.254    s0.615,1.008,1.626,1.291c0.611,0.172,1.136-0.078,1.355-0.279c0.324,0.162,0.64,0.338,0.942,0.533    c-0.066-0.006-0.131-0.01-0.202-0.006c-1.047,0.076-1.85,0.939-1.85,0.939s0.919,0.738,1.967,0.662    c0.664-0.047,1.081-0.504,1.197-0.762c1.721,1.475,2.936,3.508,3.38,5.771c-0.082-0.26-0.23-0.535-0.48-0.773    c-0.912-0.867-2.328-0.885-2.328-0.885s0.087,1.412,1,2.281c0.698,0.664,1.638,0.535,1.792,0.375    c0.057-0.061,0.104-0.232,0.104-0.455c0.063,0.451,0.104,0.908,0.104,1.375c0,1.996-0.567,3.855-1.553,5.424    c0.152-0.414,0.22-1.082-0.144-1.74c-0.713-1.285-2.283-1.797-2.283-1.797s-0.396,1.604,0.318,2.889    c0.53,0.953,1.564,1.152,1.834,1.049c-1.644,2.354-4.264,3.969-7.336,4.246l-0.073,0.006c-0.029,0.002-0.057,0.006-0.086,0.008    c-0.029-0.002-0.057-0.006-0.086-0.008l-0.074-0.006c-3.072-0.277-5.693-1.893-7.336-4.246c0.27,0.104,1.305-0.096,1.834-1.049    c0.713-1.285,0.318-2.889,0.318-2.889s-1.57,0.512-2.283,1.797c-0.364,0.658-0.296,1.326-0.144,1.74    c-0.986-1.568-1.553-3.428-1.553-5.424c0-0.467,0.042-0.926,0.105-1.379c0,0.227,0.047,0.398,0.104,0.459    c0.154,0.16,1.094,0.289,1.792-0.375c0.913-0.869,1-2.281,1-2.281s-1.416,0.018-2.328,0.885c-0.251,0.24-0.399,0.514-0.481,0.775    c0.444-2.266,1.659-4.299,3.381-5.773c0.117,0.258,0.533,0.715,1.197,0.762c1.047,0.076,1.968-0.662,1.968-0.662    s-0.804-0.863-1.851-0.939c-0.071-0.004-0.136,0-0.202,0.006c0.303-0.195,0.618-0.371,0.942-0.533    c0.22,0.201,0.744,0.451,1.355,0.279c1.011-0.283,1.626-1.291,1.626-1.291s-1.05-0.537-2.06-0.254    c-0.617,0.174-0.933,0.67-1.012,0.955c-0.243,0.119-0.479,0.248-0.711,0.385c0.088-0.094,0.17-0.197,0.238-0.326    c0.486-0.93,0.174-2.068,0.174-2.068s-1.111,0.395-1.598,1.324c-0.372,0.713-0.053,1.436,0.112,1.521    c0.066,0.035,0.235,0.027,0.435-0.037c-0.655,0.457-1.256,0.986-1.789,1.576c0.158-0.289,0.271-0.672,0.211-1.117    c-0.168-1.25-1.26-2.148-1.26-2.148s-0.817,1.156-0.649,2.404c0.128,0.955,0.941,1.443,1.161,1.414    c0.026-0.004,0.059-0.018,0.095-0.037c-1.243,1.564-2.043,3.482-2.232,5.535c0-0.414-0.122-0.939-0.519-1.396    c-0.963-1.109-2.605-1.287-2.605-1.287s-0.056,1.65,0.907,2.76c0.736,0.85,1.842,0.807,2.039,0.635    c0.067-0.057,0.133-0.229,0.163-0.457c-0.015,0.229-0.03,0.455-0.03,0.688c0,2.053,0.58,3.969,1.593,5.582    c-0.203-0.104-0.435-0.186-0.699-0.221c-1.457-0.189-2.801,0.77-2.801,0.77s1.054,1.27,2.512,1.459    c0.984,0.129,1.719-0.455,1.901-0.77c0.534,0.623,1.14,1.18,1.808,1.66c-0.262-0.064-0.556-0.09-0.877-0.031    c-1.447,0.26-2.438,1.58-2.438,1.58s1.39,0.893,2.836,0.631c1.105-0.197,1.633-1.172,1.587-1.428    c-0.004-0.02-0.021-0.049-0.036-0.074c0.964,0.525,2.024,0.906,3.154,1.107c-0.833,0.219-1.533,0.611-2.084,1.182    c-0.062,0.064-0.06,0.164,0.003,0.227c0.031,0.029,0.849,0.037,0.87-0.004c0.457-0.871,1.814-1.17,2.315-1.252    c0.501,0.082,1.859,0.381,2.315,1.252c0.021,0.041,0.839,0.033,0.87,0.004c0.063-0.063,0.066-0.162,0.003-0.227    c-0.551-0.57-1.251-0.963-2.083-1.182c1.129-0.201,2.189-0.582,3.153-1.107c-0.014,0.025-0.032,0.055-0.036,0.074    c-0.045,0.256,0.482,1.23,1.587,1.428c1.447,0.262,2.836-0.631,2.836-0.631s-0.99-1.32-2.438-1.58    c-0.321-0.059-0.615-0.033-0.876,0.031c0.667-0.48,1.274-1.037,1.808-1.66c0.182,0.314,0.917,0.898,1.901,0.77    c1.458-0.189,2.512-1.459,2.512-1.459S42.209,48.471,40.752,48.66z" fill="#FBC02D"/><path d="M42.309,44.797c-0.968,0.57-1.125,1.668-0.994,1.891c0.132,0.225,1.167,0.617,2.135,0.045    c1.266-0.748,1.737-2.328,1.737-2.328S43.575,44.051,42.309,44.797z" fill="#FBC02D"/><path d="M35.379,50.291c0.506,1.002,1.589,1.23,1.821,1.113c0.232-0.117,0.692-1.123,0.186-2.125    c-0.662-1.313-2.21-1.887-2.21-1.887S34.718,48.979,35.379,50.291z" fill="#FBC02D"/><path d="M41.116,39.6c0.241,0.098,1.302-0.217,1.728-1.256c0.556-1.359-0.026-2.906-0.026-2.906    s-1.498,0.695-2.054,2.057C40.338,38.533,40.876,39.5,41.116,39.6z" fill="#FBC02D"/><path d="M25.174,37.094c-0.89,0.371-1.151,1.281-1.066,1.488c0.085,0.205,0.918,0.66,1.807,0.289    c1.163-0.484,1.749-1.773,1.749-1.773S26.336,36.609,25.174,37.094z" fill="#FBC02D"/><path d="M23.272,44.043c-0.529,0.805-0.234,1.707-0.049,1.83c0.187,0.121,1.131,0.031,1.659-0.773    c0.691-1.055,0.455-2.449,0.455-2.449S23.963,42.988,23.272,44.043z" fill="#FBC02D"/><path d="M22.685,46.688c0.132-0.223-0.026-1.32-0.993-1.891c-1.267-0.746-2.879-0.393-2.879-0.393    s0.471,1.58,1.737,2.328C21.518,47.305,22.552,46.912,22.685,46.688z" fill="#FBC02D"/><path d="M26.8,51.404c0.231,0.117,1.314-0.111,1.82-1.113c0.662-1.313,0.203-2.898,0.203-2.898    s-1.548,0.574-2.21,1.887C26.108,50.281,26.568,51.287,26.8,51.404z" fill="#FBC02D"/><path d="M22.884,39.6c0.24-0.1,0.778-1.066,0.353-2.105c-0.556-1.361-2.055-2.057-2.055-2.057    s-0.582,1.547-0.026,2.906C21.582,39.383,22.644,39.697,22.884,39.6z" fill="#FBC02D"/></g><path d="M20.209,53.789l22.58-22.578c-1.243-1.139-2.66-2.084-4.215-2.785l-21.15,21.15   C18.127,51.131,19.072,52.547,20.209,53.789z" fill="#FFFFFF" opacity="0.4"/><path d="M16.859,48.141L37.14,27.859c-1.044-0.354-2.133-0.607-3.261-0.738l-17.76,17.76   C16.252,46.008,16.505,47.098,16.859,48.141z" fill="#FFFFFF" opacity="0.4"/></g></svg>