<?xml version="1.0" ?><!DOCTYPE svg  PUBLIC '-//W3C//DTD SVG 1.1//EN'  'http://www.w3.org/Graphics/SVG/1.1/DTD/svg11.dtd'><svg enable-background="new 0 0 64 64" height="64px" id="Layer_1" version="1.1" viewBox="0 0 64 64" width="64px" xml:space="preserve" xmlns="http://www.w3.org/2000/svg" xmlns:xlink="http://www.w3.org/1999/xlink"><g id="medal_4_"><polygon fill="#E53935" points="58,15 6,15 12,5 52,5  "/><polygon fill="#D32F2F" points="48.525,15 37.83,15 51.996,5 53.439,7.404  "/><polygon fill="#D32F2F" points="15.471,15 26.166,15 12,5 10.557,7.404  "/><polygon fill="#F44336" points="58,15 52,5 32,26.818 12,5 6,15 28,39 32,32.332 36,39  "/><polygon fill="#EF9A9A" points="8.242,11.262 30.303,35.162 31.758,32.736 9.697,8.838  "/><polygon fill="#EF9A9A" points="55.758,11.262 33.697,35.162 32.242,32.736 54.303,8.838  "/><linearGradient gradientUnits="userSpaceOnUse" id="SVGID_1_" x1="38.1504" x2="25.8499" y1="36.8496" y2="24.5491"><stop offset="0" style="stop-color:#0F272D;stop-opacity:0"/><stop offset="0.0934" style="stop-color:#0F272D;stop-opacity:0.0187"/><stop offset="1" style="stop-color:#0F272D;stop-opacity:0.2"/></linearGradient><path d="M33.592,25.08L32,26.818l-1.592-1.738c-4.101,0.406-7.732,2.369-10.331,5.277L28,39l4-6.668L36,39   l7.923-8.643C41.324,27.449,37.692,25.486,33.592,25.08z" fill="url(#SVGID_1_)"/><circle cx="32" cy="43" fill="#CFD8DC" r="16"/><path d="M48,43c0,9-7.163,16-16,16s-16-7-16-16H48z" fill="#90A4AE"/><circle cx="32" cy="43" fill="#B0BEC5" r="14"/><g><path d="M38.086,38.871c0.889,0.371,1.721-0.084,1.807-0.289c0.086-0.207-0.177-1.117-1.066-1.488    c-1.162-0.484-2.49,0.004-2.49,0.004S36.923,38.387,38.086,38.871z" fill="#78909C"/><path d="M40.777,45.873c0.186-0.123,0.48-1.025-0.049-1.83c-0.691-1.055-2.064-1.393-2.064-1.393    s-0.238,1.395,0.453,2.449C39.645,45.904,40.59,45.994,40.777,45.873z" fill="#78909C"/><path d="M40.752,48.66c-0.265,0.035-0.496,0.117-0.699,0.221c1.012-1.613,1.593-3.529,1.593-5.582    c0-0.232-0.015-0.463-0.03-0.691c0.029,0.23,0.096,0.404,0.163,0.461c0.196,0.172,1.302,0.215,2.038-0.635    c0.963-1.109,0.908-2.76,0.908-2.76s-1.643,0.178-2.605,1.287c-0.398,0.459-0.519,0.984-0.518,1.4    c-0.188-2.055-0.99-3.973-2.233-5.541c0.036,0.021,0.069,0.035,0.096,0.039c0.22,0.029,1.034-0.459,1.161-1.414    c0.168-1.248-0.648-2.404-0.648-2.404s-1.093,0.898-1.26,2.148c-0.061,0.445,0.053,0.828,0.211,1.117    c-0.533-0.59-1.135-1.119-1.79-1.576c0.2,0.064,0.369,0.072,0.435,0.037c0.166-0.086,0.484-0.809,0.112-1.521    c-0.486-0.93-1.598-1.324-1.598-1.324s-0.312,1.139,0.175,2.068c0.066,0.129,0.15,0.232,0.237,0.326    c-0.231-0.137-0.468-0.266-0.71-0.385c-0.079-0.285-0.396-0.781-1.013-0.955c-1.011-0.283-2.061,0.254-2.061,0.254    s0.614,1.008,1.626,1.291c0.611,0.172,1.136-0.078,1.355-0.279c0.324,0.162,0.639,0.338,0.941,0.533    c-0.066-0.006-0.131-0.01-0.201-0.006c-1.047,0.076-1.85,0.939-1.85,0.939s0.919,0.738,1.967,0.662    c0.664-0.047,1.08-0.504,1.197-0.762c1.721,1.475,2.936,3.508,3.38,5.771c-0.082-0.26-0.229-0.535-0.479-0.773    c-0.912-0.867-2.328-0.885-2.328-0.885s0.088,1.412,1,2.281c0.697,0.664,1.638,0.535,1.791,0.375    c0.058-0.061,0.105-0.232,0.105-0.455c0.063,0.451,0.104,0.908,0.104,1.375c0,1.996-0.566,3.855-1.553,5.424    c0.152-0.414,0.221-1.082-0.145-1.74c-0.713-1.285-2.283-1.797-2.283-1.797s-0.395,1.604,0.318,2.889    c0.529,0.953,1.564,1.152,1.834,1.049c-1.644,2.354-4.264,3.969-7.336,4.246l-0.073,0.006c-0.029,0.002-0.058,0.006-0.087,0.008    c-0.029-0.002-0.057-0.006-0.086-0.008l-0.074-0.006c-3.072-0.277-5.692-1.893-7.336-4.246c0.27,0.104,1.305-0.096,1.834-1.049    c0.713-1.285,0.318-2.889,0.318-2.889s-1.57,0.512-2.283,1.797c-0.365,0.658-0.297,1.326-0.145,1.74    c-0.986-1.568-1.553-3.428-1.553-5.424c0-0.467,0.041-0.926,0.104-1.379c-0.001,0.227,0.047,0.398,0.104,0.459    c0.154,0.16,1.094,0.289,1.791-0.375c0.913-0.869,1-2.281,1-2.281s-1.415,0.018-2.327,0.885c-0.251,0.24-0.399,0.514-0.481,0.775    c0.445-2.266,1.66-4.299,3.381-5.773c0.117,0.258,0.533,0.715,1.197,0.762c1.048,0.076,1.969-0.662,1.969-0.662    s-0.805-0.863-1.852-0.939c-0.07-0.004-0.135,0-0.201,0.006c0.303-0.195,0.617-0.371,0.941-0.533    c0.221,0.201,0.744,0.451,1.355,0.279c1.012-0.283,1.626-1.291,1.626-1.291s-1.05-0.537-2.06-0.254    c-0.617,0.174-0.934,0.67-1.013,0.955c-0.243,0.119-0.479,0.248-0.711,0.385c0.088-0.094,0.171-0.197,0.237-0.326    c0.486-0.93,0.175-2.068,0.175-2.068s-1.111,0.395-1.598,1.324c-0.372,0.713-0.054,1.436,0.112,1.521    c0.065,0.035,0.234,0.027,0.435-0.037c-0.655,0.457-1.256,0.986-1.789,1.576c0.157-0.289,0.271-0.672,0.212-1.117    c-0.169-1.25-1.261-2.148-1.261-2.148s-0.817,1.156-0.649,2.404c0.129,0.955,0.941,1.443,1.162,1.414    c0.025-0.004,0.059-0.018,0.094-0.037c-1.242,1.564-2.043,3.482-2.231,5.535c-0.001-0.414-0.122-0.939-0.519-1.396    c-0.963-1.109-2.605-1.287-2.605-1.287s-0.056,1.65,0.907,2.76c0.736,0.85,1.842,0.807,2.039,0.635    c0.067-0.057,0.133-0.229,0.163-0.457c-0.016,0.229-0.03,0.455-0.03,0.688c0,2.053,0.58,3.969,1.593,5.582    c-0.203-0.104-0.435-0.186-0.699-0.221c-1.457-0.189-2.801,0.77-2.801,0.77s1.054,1.27,2.512,1.459    c0.984,0.129,1.719-0.455,1.9-0.77c0.533,0.623,1.141,1.18,1.809,1.66c-0.263-0.064-0.557-0.09-0.877-0.031    c-1.447,0.26-2.438,1.58-2.438,1.58s1.39,0.893,2.836,0.631c1.105-0.197,1.633-1.172,1.588-1.428    c-0.004-0.02-0.021-0.049-0.036-0.074c0.964,0.525,2.024,0.906,3.153,1.107c-0.832,0.219-1.532,0.611-2.084,1.182    c-0.061,0.064-0.059,0.164,0.004,0.227c0.031,0.029,0.849,0.037,0.87-0.004c0.456-0.871,1.814-1.17,2.315-1.252    c0.501,0.082,1.859,0.381,2.315,1.252c0.021,0.041,0.839,0.033,0.87,0.004c0.063-0.063,0.066-0.162,0.004-0.227    c-0.552-0.57-1.252-0.963-2.084-1.182c1.129-0.201,2.189-0.582,3.153-1.107c-0.015,0.025-0.032,0.055-0.036,0.074    c-0.045,0.256,0.482,1.23,1.588,1.428c1.447,0.262,2.836-0.631,2.836-0.631s-0.99-1.32-2.438-1.58    c-0.32-0.059-0.614-0.033-0.876,0.031c0.667-0.48,1.274-1.037,1.808-1.66c0.182,0.314,0.917,0.898,1.9,0.77    c1.459-0.189,2.512-1.459,2.512-1.459S42.209,48.471,40.752,48.66z" fill="#78909C"/><path d="M42.309,44.797c-0.968,0.57-1.125,1.668-0.993,1.891c0.132,0.225,1.167,0.617,2.135,0.045    c1.267-0.748,1.737-2.328,1.737-2.328S43.574,44.051,42.309,44.797z" fill="#78909C"/><path d="M35.379,50.291c0.507,1.002,1.59,1.23,1.821,1.113s0.692-1.123,0.187-2.125    c-0.662-1.313-2.211-1.887-2.211-1.887S34.718,48.979,35.379,50.291z" fill="#78909C"/><path d="M41.116,39.6c0.241,0.098,1.302-0.217,1.728-1.256c0.557-1.359-0.025-2.906-0.025-2.906    s-1.498,0.695-2.055,2.057C40.338,38.533,40.876,39.5,41.116,39.6z" fill="#78909C"/><path d="M25.174,37.094c-0.89,0.371-1.151,1.281-1.066,1.488c0.086,0.205,0.918,0.66,1.807,0.289    c1.164-0.484,1.75-1.773,1.75-1.773S26.336,36.609,25.174,37.094z" fill="#78909C"/><path d="M23.271,44.043c-0.529,0.805-0.234,1.707-0.049,1.83c0.188,0.121,1.132,0.031,1.66-0.773    c0.691-1.055,0.454-2.449,0.454-2.449S23.963,42.988,23.271,44.043z" fill="#78909C"/><path d="M22.686,46.688c0.131-0.223-0.026-1.32-0.994-1.891c-1.266-0.746-2.878-0.393-2.878-0.393    s0.471,1.58,1.737,2.328C21.518,47.305,22.553,46.912,22.686,46.688z" fill="#78909C"/><path d="M26.801,51.404c0.23,0.117,1.314-0.111,1.82-1.113c0.661-1.313,0.203-2.898,0.203-2.898    s-1.549,0.574-2.211,1.887C26.107,50.281,26.568,51.287,26.801,51.404z" fill="#78909C"/><path d="M22.884,39.6c0.24-0.1,0.778-1.066,0.353-2.105c-0.556-1.361-2.055-2.057-2.055-2.057    s-0.582,1.547-0.025,2.906C21.582,39.383,22.644,39.697,22.884,39.6z" fill="#78909C"/></g><path d="M20.209,53.789l22.58-22.578c-1.242-1.139-2.659-2.084-4.215-2.785l-21.15,21.15   C18.127,51.131,19.072,52.547,20.209,53.789z" fill="#FFFFFF" opacity="0.4"/><path d="M16.859,48.141l20.282-20.281c-1.045-0.354-2.133-0.607-3.262-0.738L16.12,44.881   C16.252,46.008,16.505,47.098,16.859,48.141z" fill="#FFFFFF" opacity="0.4"/></g></svg>